# xmcd
#
# Track frame offsets:
#	150
#	18512
#	27320
#	37932
#	48660
#	68620
#	77872
#	93437
#	118335
#	131437
#	143835
#	163870
#
# Disc length: 2327 seconds
#
# Revision: 1
# Processed by: cddbd v1.5.2PL0 Copyright (c) Steve Scherf et al.
# Submitted via: audiograbber 1.83.01
#
DISCID=a109150c
DTITLE=Cor Mutsers and Patrick van Gerven - We are not alone
DYEAR=1996
DGENRE=Acoustic
TTITLE0=Devlin
TTITLE1=Long Way
TTITLE2=Dance With Me
TTITLE3=Let's Move To Cleveland
TTITLE4=My Favourite Things
TTITLE5=Passin' Through
TTITLE6=We Are Not Alone
TTITLE7=Waltz For Indira
TTITLE8=Sofa
TTITLE9=Almost There
TTITLE10=Untitled As Of Yet
TTITLE11=End Of A Day
EXTD=
EXTT0=
EXTT1=
EXTT2=
EXTT3=
EXTT4=
EXTT5=
EXTT6=
EXTT7=
EXTT8=
EXTT9=
EXTT10=
EXTT11=
PLAYORDER=
